<svg id="visual" viewBox="0 0 900 600" width="900" height="600" xmlns="http://www.w3.org/2000/svg" xmlns:xlink="http://www.w3.org/1999/xlink" version="1.1"><path d="M0 113L21.5 108.5C43 104 86 95 128.8 101.3C171.7 107.7 214.3 129.3 257.2 133.2C300 137 343 123 385.8 126.5C428.7 130 471.3 151 514.2 155.2C557 159.3 600 146.7 642.8 151.7C685.7 156.7 728.3 179.3 771.2 171C814 162.7 857 123.3 878.5 103.7L900 84L900 0L878.5 0C857 0 814 0 771.2 0C728.3 0 685.7 0 642.8 0C600 0 557 0 514.2 0C471.3 0 428.7 0 385.8 0C343 0 300 0 257.2 0C214.3 0 171.7 0 128.8 0C86 0 43 0 21.5 0L0 0Z" fill="#0B192C" stroke-linecap="round" stroke-linejoin="miter"></path></svg>